<svg width="17" height="16" viewBox="0 0 17 16" fill="none" xmlns="http://www.w3.org/2000/svg">
<path d="M11.3692 3.4107V2.20289C11.3692 2.0982 11.2489 2.04039 11.1676 2.10445L4.12385 7.60601C4.064 7.65256 4.01558 7.71215 3.98227 7.78025C3.94896 7.84836 3.93164 7.92317 3.93164 7.99898C3.93164 8.0748 3.94896 8.14961 3.98227 8.21771C4.01558 8.28582 4.064 8.34541 4.12385 8.39195L11.1676 13.8935C11.2504 13.9576 11.3692 13.8998 11.3692 13.7951V12.5873C11.3692 12.5107 11.3332 12.4373 11.2739 12.3904L5.64885 7.99976L11.2739 3.60758C11.3332 3.5607 11.3692 3.48726 11.3692 3.4107Z" fill="black"/>
</svg>
